<?xml version="1.0" encoding="UTF-8"?>
<!DOCTYPE svg PUBLIC "-//W3C//DTD SVG 1.1//EN" "http://www.w3.org/Graphics/SVG/1.1/DTD/svg11.dtd">
<svg xmlns="http://www.w3.org/2000/svg" version="1.1" width="89px" height="60px" style="shape-rendering:geometricPrecision; text-rendering:geometricPrecision; image-rendering:optimizeQuality; fill-rule:evenodd; clip-rule:evenodd" xmlns:xlink="http://www.w3.org/1999/xlink">
<g><path style="opacity:0.004" fill="#fefffe" d="M 77.5,-0.5 C 77.8333,-0.5 78.1667,-0.5 78.5,-0.5C 78.3147,0.170143 77.9813,0.170143 77.5,-0.5 Z"/></g>
<g><path style="opacity:0.004" fill="#fefffe" d="M 12.5,0.5 C 13.8333,1.16667 13.8333,1.16667 12.5,0.5 Z"/></g>
<g><path style="opacity:0.004" fill="#fefffe" d="M 63.5,0.5 C 64.8333,1.16667 64.8333,1.16667 63.5,0.5 Z"/></g>
<g><path style="opacity:0.004" fill="#fefffe" d="M 69.5,0.5 C 70.8333,1.16667 70.8333,1.16667 69.5,0.5 Z"/></g>
<g><path style="opacity:0.004" fill="#fefffe" d="M 10.5,1.5 C 11.8333,2.16667 11.8333,2.16667 10.5,1.5 Z"/></g>
<g><path style="opacity:0.004" fill="#fefffe" d="M 43.5,1.5 C 44.8333,2.16667 44.8333,2.16667 43.5,1.5 Z"/></g>
<g><path style="opacity:0.004" fill="#fefffe" d="M 52.5,1.5 C 53.8333,2.16667 53.8333,2.16667 52.5,1.5 Z"/></g>
<g><path style="opacity:0.004" fill="#fefffe" d="M 50.5,2.5 C 51.8333,3.16667 51.8333,3.16667 50.5,2.5 Z"/></g>
<g><path style="opacity:0.004" fill="#fefffe" d="M 71.5,2.5 C 72.8333,3.16667 72.8333,3.16667 71.5,2.5 Z"/></g>
<g><path style="opacity:0.004" fill="#fefffe" d="M 66.5,3.5 C 67.8333,4.16667 67.8333,4.16667 66.5,3.5 Z"/></g>
<g><path style="opacity:0.004" fill="#fefffe" d="M 88.5,3.5 C 88.5,3.83333 88.5,4.16667 88.5,4.5C 87.8299,4.01865 87.8299,3.68532 88.5,3.5 Z"/></g>
<g><path style="opacity:0.004" fill="#fefffe" d="M 46.5,4.5 C 47.8333,5.16667 47.8333,5.16667 46.5,4.5 Z"/></g>
<g><path style="opacity:0.004" fill="#fefffe" d="M 70.5,4.5 C 71.8333,5.16667 71.8333,5.16667 70.5,4.5 Z"/></g>
<g><path style="opacity:0.004" fill="#fefffe" d="M 14.5,5.5 C 15.8333,6.16667 15.8333,6.16667 14.5,5.5 Z"/></g>
<g><path style="opacity:0.004" fill="#fefffe" d="M 26.5,5.5 C 27.8333,6.16667 27.8333,6.16667 26.5,5.5 Z"/></g>
<g><path style="opacity:0.004" fill="#fefffe" d="M 83.5,5.5 C 84.8333,6.16667 84.8333,6.16667 83.5,5.5 Z"/></g>
<g><path style="opacity:0.004" fill="#00fffe" d="M 49.5,7.5 C 50.8333,8.16667 50.8333,8.16667 49.5,7.5 Z"/></g>
<g><path style="opacity:0.004" fill="#fefffe" d="M 56.5,8.5 C 57.8333,9.16667 57.8333,9.16667 56.5,8.5 Z"/></g>
<g><path style="opacity:0.004" fill="#fefffe" d="M 49.5,10.5 C 48.8333,9.16667 48.8333,9.16667 49.5,10.5 Z"/></g>
<g><path style="opacity:0.004" fill="#fefffe" d="M 49.5,10.5 C 50.8333,11.1667 50.8333,11.1667 49.5,10.5 Z"/></g>
<g><path style="opacity:0.004" fill="#fefffe" d="M 82.5,10.5 C 83.8333,11.1667 83.8333,11.1667 82.5,10.5 Z"/></g>
<g><path style="opacity:0.004" fill="#fefffe" d="M -0.5,11.5 C 0.833333,12.1667 0.833333,12.1667 -0.5,11.5 Z"/></g>
<g><path style="opacity:0.004" fill="#fefffe" d="M 12.5,12.5 C 13.8333,13.1667 13.8333,13.1667 12.5,12.5 Z"/></g>
<g><path style="opacity:0.004" fill="#fefffe" d="M 27.5,12.5 C 28.8333,13.1667 28.8333,13.1667 27.5,12.5 Z"/></g>
<g><path style="opacity:0.004" fill="#fefffe" d="M 70.5,13.5 C 71.8333,14.1667 71.8333,14.1667 70.5,13.5 Z"/></g>
<g><path style="opacity:0.204" fill="#f1d6cb" d="M 53.5,15.5 C 51.2188,15.0773 49.5521,15.744 48.5,17.5C 48.1667,17.5 47.8333,17.5 47.5,17.5C 47.5,16.5 47.5,15.5 47.5,14.5C 49.7354,14.2053 51.7354,14.5386 53.5,15.5 Z"/></g>
<g><path style="opacity:0.004" fill="#00fffe" d="M 59.5,14.5 C 60.8333,15.1667 60.8333,15.1667 59.5,14.5 Z"/></g>
<g><path style="opacity:0.543" fill="#cfa28f" d="M 84.5,14.5 C 84.5,14.8333 84.5,15.1667 84.5,15.5C 81.1667,15.5 77.8333,15.5 74.5,15.5C 77.6022,13.4306 80.9356,13.0973 84.5,14.5 Z"/></g>
<g><path style="opacity:0.004" fill="#fefffe" d="M 12.5,15.5 C 13.8333,16.1667 13.8333,16.1667 12.5,15.5 Z"/></g>
<g><path style="opacity:0.753" fill="#c46f46" d="M 53.5,15.5 C 54.5,15.8333 55.1667,16.5 55.5,17.5C 55.5,20.1667 55.5,22.8333 55.5,25.5C 55.1667,25.5 54.8333,25.5 54.5,25.5C 54.8064,22.6146 54.4731,19.9479 53.5,17.5C 51.9504,16.2801 50.2837,16.2801 48.5,17.5C 49.5521,15.744 51.2188,15.0773 53.5,15.5 Z"/></g>
<g><path style="opacity:0.827" fill="#ca5c2b" d="M 74.5,16.5 C 74.5,16.1667 74.5,15.8333 74.5,15.5C 77.8333,15.5 81.1667,15.5 84.5,15.5C 85.3382,15.8417 85.6716,16.5084 85.5,17.5C 84.5084,17.3284 83.8417,17.6618 83.5,18.5C 82.5084,18.3284 81.8417,18.6618 81.5,19.5C 80.1667,19.5 78.8333,19.5 77.5,19.5C 77.5,19.1667 77.5,18.8333 77.5,18.5C 82.7866,17.039 82.4533,16.3723 76.5,16.5C 75.8333,16.5 75.1667,16.5 74.5,16.5 Z"/></g>
<g><path style="opacity:0.416" fill="#d9b8a6" d="M 27.5,15.5 C 26.7375,16.2679 25.7375,16.7679 24.5,17C 27.6946,17.1805 30.6946,17.6805 33.5,18.5C 30.0613,18.2529 26.728,18.5863 23.5,19.5C 23.1788,17.9519 22.1788,17.2852 20.5,17.5C 22.5145,16.0762 24.8478,15.4095 27.5,15.5 Z"/></g>
<g><path style="opacity:0.424" fill="#b48168" d="M 27.5,15.5 C 30.7131,15.19 33.7131,15.5233 36.5,16.5C 35.1667,16.5 34.5,17.1667 34.5,18.5C 34.1667,18.5 33.8333,18.5 33.5,18.5C 30.6946,17.6805 27.6946,17.1805 24.5,17C 25.7375,16.7679 26.7375,16.2679 27.5,15.5 Z"/></g>
<g><path style="opacity:0.596" fill="#c57f65" d="M 36.5,16.5 C 38.0269,16.427 39.0269,17.0937 39.5,18.5C 39.5,18.8333 39.5,19.1667 39.5,19.5C 38.8333,19.1667 38.1667,18.8333 37.5,18.5C 37.44,17.9569 37.1067,17.6236 36.5,17.5C 35.5713,18.6888 35.238,20.0222 35.5,21.5C 35.1667,21.5 34.8333,21.5 34.5,21.5C 34.5,20.5 34.5,19.5 34.5,18.5C 34.5,17.1667 35.1667,16.5 36.5,16.5 Z"/></g>
<g><path style="opacity:0.004" fill="#fefffe" d="M 67.5,16.5 C 68.8333,17.1667 68.8333,17.1667 67.5,16.5 Z"/></g>
<g><path style="opacity:0.996" fill="#e64c0d" d="M 76.5,16.5 C 82.4533,16.3723 82.7866,17.039 77.5,18.5C 76.8333,18.5 76.5,18.1667 76.5,17.5C 76.5,17.1667 76.5,16.8333 76.5,16.5 Z"/></g>
<g><path style="opacity:0.102" fill="#ccb190" d="M 84.5,15.5 C 84.5,15.1667 84.5,14.8333 84.5,14.5C 87.6822,15.1403 88.0155,16.1403 85.5,17.5C 85.6716,16.5084 85.3382,15.8417 84.5,15.5 Z"/></g>
<g><path style="opacity:1" fill="#d55220" d="M 53.5,17.5 C 51.7839,17.6287 50.1172,17.962 48.5,18.5C 48.5,18.1667 48.5,17.8333 48.5,17.5C 50.2837,16.2801 51.9504,16.2801 53.5,17.5 Z"/></g>
<g><path style="opacity:0.667" fill="#d79579" d="M 74.5,15.5 C 74.5,15.8333 74.5,16.1667 74.5,16.5C 73.5,17.1667 72.5,17.8333 71.5,18.5C 70.8333,18.5 70.1667,18.5 69.5,18.5C 70.6594,16.7497 72.326,15.7497 74.5,15.5 Z"/></g>
<g><path style="opacity:1" fill="#da541c" d="M 74.5,16.5 C 75.1667,16.5 75.8333,16.5 76.5,16.5C 76.5,16.8333 76.5,17.1667 76.5,17.5C 75.609,18.1098 74.609,18.4431 73.5,18.5C 72.8333,18.5 72.1667,18.5 71.5,18.5C 72.5,17.8333 73.5,17.1667 74.5,16.5 Z"/></g>
<g><path style="opacity:0.075" fill="#f8ded2" d="M 83.5,18.5 C 83.8417,17.6618 84.5084,17.3284 85.5,17.5C 85.5912,19.6977 84.9245,20.0311 83.5,18.5 Z"/></g>
<g><path style="opacity:0.522" fill="#c5724a" d="M 19.5,18.5 C 21.6977,18.4088 22.0311,19.0755 20.5,20.5C 20.5,21.1667 20.1667,21.5 19.5,21.5C 18.8843,20.2022 18.8843,19.2022 19.5,18.5 Z"/></g>
<g><path style="opacity:0.439" fill="#c98d6c" d="M 19.5,18.5 C 19.5,18.1667 19.5,17.8333 19.5,17.5C 19.8333,17.5 20.1667,17.5 20.5,17.5C 22.1788,17.2852 23.1788,17.9519 23.5,19.5C 22.791,20.404 21.791,20.7373 20.5,20.5C 22.0311,19.0755 21.6977,18.4088 19.5,18.5 Z"/></g>
<g><path style="opacity:0.769" fill="#cf7c58" d="M 47.5,17.5 C 47.8333,17.5 48.1667,17.5 48.5,17.5C 48.5,17.8333 48.5,18.1667 48.5,18.5C 47.8333,18.5 47.5,18.8333 47.5,19.5C 46.8333,19.5 46.5,19.8333 46.5,20.5C 46.1667,20.5 45.8333,20.5 45.5,20.5C 45.5,20.1667 45.5,19.8333 45.5,19.5C 45.8333,18.5 46.5,17.8333 47.5,17.5 Z"/></g>
<g><path style="opacity:1" fill="#de4f13" d="M 53.5,17.5 C 54.4731,19.9479 54.8064,22.6146 54.5,25.5C 54.5,25.8333 54.5,26.1667 54.5,26.5C 53.5655,25.4324 53.2322,24.099 53.5,22.5C 53.762,21.0222 53.4287,19.6888 52.5,18.5C 51.8933,18.6236 51.56,18.9569 51.5,19.5C 50.5,19.5 49.5,19.5 48.5,19.5C 48.1667,19.5 47.8333,19.5 47.5,19.5C 47.5,18.8333 47.8333,18.5 48.5,18.5C 50.1172,17.962 51.7839,17.6287 53.5,17.5 Z"/></g>
<g><path style="opacity:0.999" fill="#e64c12" d="M 76.5,17.5 C 76.5,18.1667 76.8333,18.5 77.5,18.5C 77.5,18.8333 77.5,19.1667 77.5,19.5C 77.1667,20.5 76.5,21.1667 75.5,21.5C 74.8333,21.5 74.1667,21.5 73.5,21.5C 72.7611,21.631 72.0944,21.4643 71.5,21C 72.3805,20.2917 73.0472,19.4584 73.5,18.5C 74.609,18.4431 75.609,18.1098 76.5,17.5 Z"/></g>
<g><path style="opacity:0.012" fill="#fceee9" d="M 81.5,19.5 C 81.8417,18.6618 82.5084,18.3284 83.5,18.5C 83.5912,20.6977 82.9245,21.0311 81.5,19.5 Z"/></g>
<g><path style="opacity:0.918" fill="#d25423" d="M 37.5,18.5 C 36.596,19.209 36.2627,20.209 36.5,21.5C 36.1667,21.5 35.8333,21.5 35.5,21.5C 35.238,20.0222 35.5713,18.6888 36.5,17.5C 37.1067,17.6236 37.44,17.9569 37.5,18.5 Z"/></g>
<g><path style="opacity:1" fill="#ed4b08" d="M 53.5,22.5 C 52.8333,22.5 52.1667,22.5 51.5,22.5C 51.5,22.1667 51.5,21.8333 51.5,21.5C 51.5,20.8333 51.5,20.1667 51.5,19.5C 51.56,18.9569 51.8933,18.6236 52.5,18.5C 53.4287,19.6888 53.762,21.0222 53.5,22.5 Z"/></g>
<g><path style="opacity:0.776" fill="#db9375" d="M 19.5,17.5 C 19.5,17.8333 19.5,18.1667 19.5,18.5C 18.8843,19.2022 18.8843,20.2022 19.5,21.5C 19.1667,22.5 18.5,23.1667 17.5,23.5C 17.7678,21.901 17.4345,20.5676 16.5,19.5C 16.9731,18.0937 17.9731,17.427 19.5,17.5 Z"/></g>
<g><path style="opacity:0.975" fill="#e44d0e" d="M 37.5,18.5 C 37.8333,19.8333 38.1667,21.1667 38.5,22.5C 37.8333,22.1667 37.1667,21.8333 36.5,21.5C 36.2627,20.209 36.596,19.209 37.5,18.5 Z"/></g>
<g><path style="opacity:0.749" fill="#cb5a27" d="M 37.5,18.5 C 38.1667,18.8333 38.8333,19.1667 39.5,19.5C 39.5,20.8333 39.5,22.1667 39.5,23.5C 39.1667,23.5 38.8333,23.5 38.5,23.5C 38.5,23.1667 38.5,22.8333 38.5,22.5C 38.1667,21.1667 37.8333,19.8333 37.5,18.5 Z"/></g>
<g><path style="opacity:1" fill="#e15212" d="M 48.5,20.5 C 49.209,21.404 50.209,21.7373 51.5,21.5C 51.5,21.8333 51.5,22.1667 51.5,22.5C 51.5,22.8333 51.5,23.1667 51.5,23.5C 50.1667,23.5 48.8333,23.5 47.5,23.5C 47.2627,22.209 47.596,21.209 48.5,20.5 Z"/></g>
<g><path style="opacity:1" fill="#e54b06" d="M 48.5,19.5 C 49.5,19.5 50.5,19.5 51.5,19.5C 51.5,20.1667 51.5,20.8333 51.5,21.5C 50.209,21.7373 49.209,21.404 48.5,20.5C 48.5,20.1667 48.5,19.8333 48.5,19.5 Z"/></g>
<g><path style="opacity:1" fill="#e14d16" d="M 69.5,18.5 C 70.1667,18.5 70.8333,18.5 71.5,18.5C 72.1667,18.5 72.8333,18.5 73.5,18.5C 73.0472,19.4584 72.3805,20.2917 71.5,21C 72.0944,21.4643 72.7611,21.631 73.5,21.5C 72.4324,22.4345 71.099,22.7678 69.5,22.5C 68.6618,22.1583 68.3284,21.4916 68.5,20.5C 68.8333,19.8333 69.1667,19.1667 69.5,18.5 Z"/></g>
<g><path style="opacity:0.227" fill="#e6b7a8" d="M 77.5,19.5 C 78.8333,19.5 80.1667,19.5 81.5,19.5C 79.8185,21.0075 77.8185,22.0075 75.5,22.5C 75.5,22.1667 75.5,21.8333 75.5,21.5C 76.5,21.1667 77.1667,20.5 77.5,19.5 Z"/></g>
<g><path style="opacity:1" fill="#ce7856" d="M 16.5,19.5 C 17.4345,20.5676 17.7678,21.901 17.5,23.5C 17.1583,24.3382 16.4916,24.6716 15.5,24.5C 15.2893,22.5759 14.6226,22.2426 13.5,23.5C 12.8333,23.5 12.1667,23.5 11.5,23.5C 12.5794,21.457 14.246,20.1237 16.5,19.5 Z"/></g>
<g><path style="opacity:0.694" fill="#e6aa8b" d="M 33.5,18.5 C 33.8333,18.5 34.1667,18.5 34.5,18.5C 34.5,19.5 34.5,20.5 34.5,21.5C 34.5,21.8333 34.5,22.1667 34.5,22.5C 34.1667,22.5 33.8333,22.5 33.5,22.5C 33.1667,22.5 32.8333,22.5 32.5,22.5C 33.2341,21.2921 33.5674,19.9587 33.5,18.5 Z"/></g>
<g><path style="opacity:0.451" fill="#e1bbac" d="M 45.5,19.5 C 45.5,19.8333 45.5,20.1667 45.5,20.5C 44.5,20.8333 43.8333,21.5 43.5,22.5C 42.8333,22.8333 42.1667,23.1667 41.5,23.5C 41.5,23.1667 41.5,22.8333 41.5,22.5C 42.2623,20.7376 43.5956,19.7376 45.5,19.5 Z"/></g>
<g><path style="opacity:1" fill="#e3500b" d="M 47.5,19.5 C 47.8333,19.5 48.1667,19.5 48.5,19.5C 48.5,19.8333 48.5,20.1667 48.5,20.5C 47.596,21.209 47.2627,22.209 47.5,23.5C 47.5,24.1667 47.5,24.8333 47.5,25.5C 47.1667,25.5 46.8333,25.5 46.5,25.5C 45.9094,24.8485 45.2427,24.1818 44.5,23.5C 45.1925,22.4822 45.8592,21.4822 46.5,20.5C 46.5,19.8333 46.8333,19.5 47.5,19.5 Z"/></g>
<g><path style="opacity:1" fill="#d56f47" d="M 15.5,24.5 C 15.573,26.0269 14.9063,27.0269 13.5,27.5C 13.5,26.1667 13.5,24.8333 13.5,23.5C 14.6226,22.2426 15.2893,22.5759 15.5,24.5 Z"/></g>
<g><path style="opacity:1" fill="#df5117" d="M 34.5,21.5 C 34.8333,21.5 35.1667,21.5 35.5,21.5C 35.8333,21.5 36.1667,21.5 36.5,21.5C 37.1667,21.8333 37.8333,22.1667 38.5,22.5C 38.5,22.8333 38.5,23.1667 38.5,23.5C 37.596,24.209 37.2627,25.209 37.5,26.5C 37.1667,26.5 36.8333,26.5 36.5,26.5C 35.8333,25.1667 35.1667,23.8333 34.5,22.5C 34.5,22.1667 34.5,21.8333 34.5,21.5 Z"/></g>
<g><path style="opacity:0.925" fill="#d28d6c" d="M 69.5,18.5 C 69.1667,19.1667 68.8333,19.8333 68.5,20.5C 66.8089,21.8637 65.1423,23.197 63.5,24.5C 63.1667,25.1667 62.8333,25.8333 62.5,26.5C 62.1667,26.5 61.8333,26.5 61.5,26.5C 61.5,26.1667 61.5,25.8333 61.5,25.5C 63.5433,22.4569 66.2099,20.1236 69.5,18.5 Z"/></g>
<g><path style="opacity:0.999" fill="#dc5218" d="M 68.5,20.5 C 68.3284,21.4916 68.6618,22.1583 69.5,22.5C 69.5,24.1667 69.5,25.8333 69.5,27.5C 69.1667,27.5 68.8333,27.5 68.5,27.5C 68.762,26.0222 68.4287,24.6888 67.5,23.5C 66.8933,23.6236 66.56,23.9569 66.5,24.5C 65.8333,24.5 65.1667,24.5 64.5,24.5C 64.1667,24.5 63.8333,24.5 63.5,24.5C 65.1423,23.197 66.8089,21.8637 68.5,20.5 Z"/></g>
<g><path style="opacity:0.004" fill="#fefffe" d="M -0.5,23.5 C 0.166667,23.5 0.5,23.8333 0.5,24.5C 0.166667,24.1667 -0.166667,23.8333 -0.5,23.5 Z"/></g>
<g><path style="opacity:0.004" fill="#fefffe" d="M 9.5,24.5 C 8.83333,23.1667 8.83333,23.1667 9.5,24.5 Z"/></g>
<g><path style="opacity:0.035" fill="#f5d7c3" d="M 39.5,18.5 C 40.1667,19.8333 40.8333,21.1667 41.5,22.5C 41.5,22.8333 41.5,23.1667 41.5,23.5C 40.8333,23.5 40.5,23.8333 40.5,24.5C 39.8333,24.5 39.5,24.1667 39.5,23.5C 39.5,22.1667 39.5,20.8333 39.5,19.5C 39.5,19.1667 39.5,18.8333 39.5,18.5 Z"/></g>
<g><path style="opacity:0.839" fill="#c7663a" d="M 43.5,22.5 C 43.5,23.1667 43.5,23.8333 43.5,24.5C 42.5084,24.3284 41.8417,24.6618 41.5,25.5C 41.1667,25.5 40.8333,25.5 40.5,25.5C 40.5,25.1667 40.5,24.8333 40.5,24.5C 40.5,23.8333 40.8333,23.5 41.5,23.5C 42.1667,23.1667 42.8333,22.8333 43.5,22.5 Z"/></g>
<g><path style="opacity:0.698" fill="#ca6e46" d="M 47.5,23.5 C 48.8333,23.5 50.1667,23.5 51.5,23.5C 51.5,25.5 51.5,27.5 51.5,29.5C 51.1667,29.5 50.8333,29.5 50.5,29.5C 50.5,29.1667 50.5,28.8333 50.5,28.5C 50.762,27.0222 50.4287,25.6888 49.5,24.5C 48.8933,24.6236 48.56,24.9569 48.5,25.5C 48.1667,25.5 47.8333,25.5 47.5,25.5C 47.5,24.8333 47.5,24.1667 47.5,23.5 Z"/></g>
<g><path style="opacity:0.004" fill="#fefffe" d="M 59.5,23.5 C 60.8333,24.1667 60.8333,24.1667 59.5,23.5 Z"/></g>
<g><path style="opacity:1" fill="#e34f13" d="M 66.5,24.5 C 66.56,23.9569 66.8933,23.6236 67.5,23.5C 68.4287,24.6888 68.762,26.0222 68.5,27.5C 68.1667,27.5 67.8333,27.5 67.5,27.5C 67.7373,26.209 67.404,25.209 66.5,24.5 Z"/></g>
<g><path style="opacity:1" fill="#d5693a" d="M 73.5,21.5 C 74.1667,21.5 74.8333,21.5 75.5,21.5C 75.5,21.8333 75.5,22.1667 75.5,22.5C 75.5,23.1667 75.1667,23.5 74.5,23.5C 72.9731,23.427 71.9731,24.0937 71.5,25.5C 71.1667,26.5 70.5,27.1667 69.5,27.5C 69.5,25.8333 69.5,24.1667 69.5,22.5C 71.099,22.7678 72.4324,22.4345 73.5,21.5 Z"/></g>
<g><path style="opacity:0.004" fill="#00fffe" d="M 0.5,24.5 C 1.83333,25.1667 1.83333,25.1667 0.5,24.5 Z"/></g>
<g><path style="opacity:0.933" fill="#cd8774" d="M 11.5,23.5 C 11.5,24.1667 11.5,24.8333 11.5,25.5C 10.5,25.8333 9.83333,26.5 9.5,27.5C 9.16667,27.5 8.83333,27.5 8.5,27.5C 8.55688,26.391 8.89022,25.391 9.5,24.5C 10.1667,24.1667 10.8333,23.8333 11.5,23.5 Z"/></g>
<g><path style="opacity:0.627" fill="#d28e75" d="M 32.5,22.5 C 32.8333,22.5 33.1667,22.5 33.5,22.5C 33.1667,23.1667 32.8333,23.8333 32.5,24.5C 31.8333,24.5 31.5,24.8333 31.5,25.5C 30.8333,25.5 30.1667,25.5 29.5,25.5C 30.1667,24.1667 31.1667,23.1667 32.5,22.5 Z"/></g>
<g><path style="opacity:1" fill="#d95416" d="M 33.5,22.5 C 33.8333,22.5 34.1667,22.5 34.5,22.5C 35.1667,23.8333 35.8333,25.1667 36.5,26.5C 36.5,27.1667 36.1667,27.5 35.5,27.5C 35.1667,27.5 34.8333,27.5 34.5,27.5C 34.7148,25.8212 34.0481,24.8212 32.5,24.5C 32.8333,23.8333 33.1667,23.1667 33.5,22.5 Z"/></g>
<g><path style="opacity:1" fill="#db541e" d="M 45.5,20.5 C 45.8333,20.5 46.1667,20.5 46.5,20.5C 45.8592,21.4822 45.1925,22.4822 44.5,23.5C 45.2427,24.1818 45.9094,24.8485 46.5,25.5C 45.8902,26.391 45.5569,27.391 45.5,28.5C 45.1667,28.5 44.8333,28.5 44.5,28.5C 44.5674,27.0413 44.2341,25.7079 43.5,24.5C 43.5,23.8333 43.5,23.1667 43.5,22.5C 43.8333,21.5 44.5,20.8333 45.5,20.5 Z"/></g>
<g><path style="opacity:0.267" fill="#ffc9af" d="M 48.5,25.5 C 48.56,24.9569 48.8933,24.6236 49.5,24.5C 50.4287,25.6888 50.762,27.0222 50.5,28.5C 49.8333,27.5 49.1667,26.5 48.5,25.5 Z"/></g>
<g><path style="opacity:0.024" fill="#f3d4b1" d="M 74.5,23.5 C 74.0269,24.9063 73.0269,25.573 71.5,25.5C 71.9731,24.0937 72.9731,23.427 74.5,23.5 Z"/></g>
<g><path style="opacity:1" fill="#d75324" d="M 11.5,23.5 C 12.1667,23.5 12.8333,23.5 13.5,23.5C 13.5,24.8333 13.5,26.1667 13.5,27.5C 13.1667,27.5 12.8333,27.5 12.5,27.5C 12.6716,26.5084 12.3382,25.8417 11.5,25.5C 11.5,24.8333 11.5,24.1667 11.5,23.5 Z"/></g>
<g><path style="opacity:0.549" fill="#dd8e76" d="M 38.5,23.5 C 38.8333,23.5 39.1667,23.5 39.5,23.5C 39.5,24.1667 39.8333,24.5 40.5,24.5C 40.5,24.8333 40.5,25.1667 40.5,25.5C 39.8333,25.8333 39.1667,26.1667 38.5,26.5C 38.1667,26.5 37.8333,26.5 37.5,26.5C 37.2627,25.209 37.596,24.209 38.5,23.5 Z"/></g>
<g><path style="opacity:0.999" fill="#e34d13" d="M 43.5,24.5 C 44.2341,25.7079 44.5674,27.0413 44.5,28.5C 43.5326,29.8062 42.1993,30.4729 40.5,30.5C 40.5,30.1667 40.5,29.8333 40.5,29.5C 41.404,28.791 41.7373,27.791 41.5,26.5C 41.5,26.1667 41.5,25.8333 41.5,25.5C 41.8417,24.6618 42.5084,24.3284 43.5,24.5 Z"/></g>
<g><path style="opacity:0.996" fill="#e54f10" d="M 31.5,26.5 C 32.3382,26.8417 32.6716,27.5084 32.5,28.5C 31.8333,28.5 31.5,28.8333 31.5,29.5C 30.609,30.1098 29.609,30.4431 28.5,30.5C 27.5084,30.6716 26.8417,30.3382 26.5,29.5C 28.4113,28.925 30.078,27.925 31.5,26.5 Z"/></g>
<g><path style="opacity:1" fill="#df4f12" d="M 32.5,24.5 C 34.0481,24.8212 34.7148,25.8212 34.5,27.5C 33.8333,27.8333 33.1667,28.1667 32.5,28.5C 32.6716,27.5084 32.3382,26.8417 31.5,26.5C 31.5,26.1667 31.5,25.8333 31.5,25.5C 31.5,24.8333 31.8333,24.5 32.5,24.5 Z"/></g>
<g><path style="opacity:0.231" fill="#d8a289" d="M 46.5,25.5 C 46.8333,25.5 47.1667,25.5 47.5,25.5C 47.8333,25.5 48.1667,25.5 48.5,25.5C 47.8333,26.8333 46.8333,27.8333 45.5,28.5C 45.5569,27.391 45.8902,26.391 46.5,25.5 Z"/></g>
<g><path style="opacity:1" fill="#e14f17" d="M 51.5,22.5 C 52.1667,22.5 52.8333,22.5 53.5,22.5C 53.2322,24.099 53.5655,25.4324 54.5,26.5C 54.5,26.8333 54.5,27.1667 54.5,27.5C 52.8235,28.1834 52.1568,29.5168 52.5,31.5C 51.6618,31.1583 51.3284,30.4916 51.5,29.5C 51.5,27.5 51.5,25.5 51.5,23.5C 51.5,23.1667 51.5,22.8333 51.5,22.5 Z"/></g>
<g><path style="opacity:0.788" fill="#e2a38f" d="M 61.5,25.5 C 61.5,25.8333 61.5,26.1667 61.5,26.5C 60.8333,27.5 60.1667,28.5 59.5,29.5C 59.1667,29.5 58.8333,29.5 58.5,29.5C 58.7376,27.5956 59.7376,26.2623 61.5,25.5 Z"/></g>
<g><path style="opacity:1" fill="#e94b09" d="M 64.5,24.5 C 65.1667,24.5 65.8333,24.5 66.5,24.5C 67.404,25.209 67.7373,26.209 67.5,27.5C 66.1266,27.6567 64.7932,27.49 63.5,27C 64.2524,26.3292 64.5858,25.4959 64.5,24.5 Z"/></g>
<g><path style="opacity:0.78" fill="#c7663c" d="M 34.5,27.5 C 34.8333,27.5 35.1667,27.5 35.5,27.5C 35.1667,28.1667 34.8333,28.8333 34.5,29.5C 33.8333,29.5 33.1667,29.5 32.5,29.5C 32.1667,29.5 31.8333,29.5 31.5,29.5C 31.5,28.8333 31.8333,28.5 32.5,28.5C 33.1667,28.1667 33.8333,27.8333 34.5,27.5 Z"/></g>
<g><path style="opacity:1" fill="#d35321" d="M 61.5,26.5 C 61.8333,26.5 62.1667,26.5 62.5,26.5C 62.4431,27.609 62.1098,28.609 61.5,29.5C 60.8333,29.5 60.5,29.8333 60.5,30.5C 60.1667,30.5 59.8333,30.5 59.5,30.5C 59.5,30.1667 59.5,29.8333 59.5,29.5C 60.1667,28.5 60.8333,27.5 61.5,26.5 Z"/></g>
<g><path style="opacity:1" fill="#dc5114" d="M 63.5,24.5 C 63.8333,24.5 64.1667,24.5 64.5,24.5C 64.5858,25.4959 64.2524,26.3292 63.5,27C 64.7932,27.49 66.1266,27.6567 67.5,27.5C 67.2671,29.0618 66.6005,30.3951 65.5,31.5C 64.8333,32.1667 64.1667,32.8333 63.5,33.5C 63.7709,31.6203 63.1042,30.287 61.5,29.5C 62.1098,28.609 62.4431,27.609 62.5,26.5C 62.8333,25.8333 63.1667,25.1667 63.5,24.5 Z"/></g>
<g><path style="opacity:0.004" fill="#fefffe" d="M 78.5,27.5 C 79.8333,28.1667 79.8333,28.1667 78.5,27.5 Z"/></g>
<g><path style="opacity:0.996" fill="#d8521b" d="M 11.5,25.5 C 12.3382,25.8417 12.6716,26.5084 12.5,27.5C 11.8902,28.391 11.5569,29.391 11.5,30.5C 11.1667,30.5 10.8333,30.5 10.5,30.5C 10.5,29.8333 10.1667,29.5 9.5,29.5C 9.5,28.8333 9.5,28.1667 9.5,27.5C 9.83333,26.5 10.5,25.8333 11.5,25.5 Z"/></g>
<g><path style="opacity:0.298" fill="#e0a589" d="M 12.5,27.5 C 12.8333,27.5 13.1667,27.5 13.5,27.5C 12.8413,30.4552 12.5079,33.4552 12.5,36.5C 12.1667,36.5 11.8333,36.5 11.5,36.5C 11.5,34.5 11.5,32.5 11.5,30.5C 11.5569,29.391 11.8902,28.391 12.5,27.5 Z"/></g>
<g><path style="opacity:0.576" fill="#d29b81" d="M 29.5,25.5 C 28.5,26.8333 27.5,28.1667 26.5,29.5C 25.8333,29.5 25.1667,29.5 24.5,29.5C 25.5846,27.4131 27.2512,26.0798 29.5,25.5 Z"/></g>
<g><path style="opacity:0.949" fill="#d05320" d="M 29.5,25.5 C 30.1667,25.5 30.8333,25.5 31.5,25.5C 31.5,25.8333 31.5,26.1667 31.5,26.5C 30.078,27.925 28.4113,28.925 26.5,29.5C 27.5,28.1667 28.5,26.8333 29.5,25.5 Z"/></g>
<g><path style="opacity:0.631" fill="#e38c6e" d="M 36.5,26.5 C 36.8333,26.5 37.1667,26.5 37.5,26.5C 37.8333,26.5 38.1667,26.5 38.5,26.5C 37.5,28.1667 36.1667,29.5 34.5,30.5C 34.5,30.1667 34.5,29.8333 34.5,29.5C 34.8333,28.8333 35.1667,28.1667 35.5,27.5C 36.1667,27.5 36.5,27.1667 36.5,26.5 Z"/></g>
<g><path style="opacity:0.996" fill="#d45624" d="M 40.5,25.5 C 40.8333,25.5 41.1667,25.5 41.5,25.5C 41.5,25.8333 41.5,26.1667 41.5,26.5C 40.1667,27.1667 39.1667,28.1667 38.5,29.5C 37.8333,29.5 37.5,29.8333 37.5,30.5C 36.8333,30.8333 36.1667,31.1667 35.5,31.5C 34.609,32.1098 33.609,32.4431 32.5,32.5C 32.8333,31.5 33.5,30.8333 34.5,30.5C 36.1667,29.5 37.5,28.1667 38.5,26.5C 39.1667,26.1667 39.8333,25.8333 40.5,25.5 Z"/></g>
<g><path style="opacity:1" fill="#e95008" d="M 41.5,26.5 C 41.7373,27.791 41.404,28.791 40.5,29.5C 39.8333,29.5 39.1667,29.5 38.5,29.5C 39.1667,28.1667 40.1667,27.1667 41.5,26.5 Z"/></g>
<g><path style="opacity:1" fill="#ea4c0a" d="M 54.5,27.5 C 54.8432,29.4832 54.1765,30.8166 52.5,31.5C 52.1568,29.5168 52.8235,28.1834 54.5,27.5 Z"/></g>
<g><path style="opacity:0.725" fill="#c17651" d="M 31.5,29.5 C 31.8333,29.5 32.1667,29.5 32.5,29.5C 32.1667,30.1667 31.8333,30.8333 31.5,31.5C 31.1667,31.5 30.8333,31.5 30.5,31.5C 29.8333,31.5 29.1667,31.5 28.5,31.5C 28.5,31.1667 28.5,30.8333 28.5,30.5C 29.609,30.4431 30.609,30.1098 31.5,29.5 Z"/></g>
<g><path style="opacity:0.904" fill="#d88661" d="M 8.5,27.5 C 8.83333,27.5 9.16667,27.5 9.5,27.5C 9.5,28.1667 9.5,28.8333 9.5,29.5C 8.56552,30.5676 8.23219,31.901 8.5,33.5C 8.83333,34.1667 9.16667,34.8333 9.5,35.5C 8.83333,35.5 8.16667,35.5 7.5,35.5C 6.22722,32.6032 6.56055,29.9365 8.5,27.5 Z"/></g>
<g><path style="opacity:0.867" fill="#c9562d" d="M 24.5,29.5 C 25.1667,29.5 25.8333,29.5 26.5,29.5C 26.8417,30.3382 27.5084,30.6716 28.5,30.5C 28.5,30.8333 28.5,31.1667 28.5,31.5C 26.8008,31.6602 25.1341,31.4935 23.5,31C 24.056,30.6174 24.3893,30.1174 24.5,29.5 Z"/></g>
<g><path style="opacity:0.11" fill="#f0c2a0" d="M 32.5,29.5 C 33.1667,29.5 33.8333,29.5 34.5,29.5C 34.5,29.8333 34.5,30.1667 34.5,30.5C 33.5,30.8333 32.8333,31.5 32.5,32.5C 32.1667,33.1667 31.8333,33.8333 31.5,34.5C 30.8333,34.5 30.1667,34.5 29.5,34.5C 29.8333,33.8333 30.1667,33.1667 30.5,32.5C 31.1667,32.5 31.5,32.1667 31.5,31.5C 31.8333,30.8333 32.1667,30.1667 32.5,29.5 Z"/></g>
<g><path style="opacity:0.325" fill="#e7b69b" d="M 55.5,17.5 C 55.8693,21.7675 56.8693,25.7675 58.5,29.5C 58.3678,32.0069 57.3678,32.6736 55.5,31.5C 55.5,29.5 55.5,27.5 55.5,25.5C 55.5,22.8333 55.5,20.1667 55.5,17.5 Z"/></g>
<g><path style="opacity:0.114" fill="#e8b6a4" d="M 67.5,27.5 C 67.8333,27.5 68.1667,27.5 68.5,27.5C 68.8333,27.5 69.1667,27.5 69.5,27.5C 68.5514,29.7772 67.2181,31.7772 65.5,33.5C 65.5,32.8333 65.5,32.1667 65.5,31.5C 66.6005,30.3951 67.2671,29.0618 67.5,27.5 Z"/></g>
<g><path style="opacity:1" fill="#e25114" d="M 9.5,29.5 C 10.1667,29.5 10.5,29.8333 10.5,30.5C 10.5,31.1667 10.5,31.8333 10.5,32.5C 9.83333,32.8333 9.16667,33.1667 8.5,33.5C 8.23219,31.901 8.56552,30.5676 9.5,29.5 Z"/></g>
<g><path style="opacity:0.196" fill="#ceaea2" d="M 24.5,29.5 C 24.3893,30.1174 24.056,30.6174 23.5,31C 25.1341,31.4935 26.8008,31.6602 28.5,31.5C 29.1667,31.5 29.8333,31.5 30.5,31.5C 30.5,31.8333 30.5,32.1667 30.5,32.5C 27.4281,32.8174 24.4281,32.4841 21.5,31.5C 22.0047,30.0815 23.0047,29.4148 24.5,29.5 Z"/></g>
<g><path style="opacity:1" fill="#e44f10" d="M 38.5,29.5 C 39.1667,29.5 39.8333,29.5 40.5,29.5C 40.5,29.8333 40.5,30.1667 40.5,30.5C 39.8333,31.8333 39.1667,33.1667 38.5,34.5C 38.1667,34.5 37.8333,34.5 37.5,34.5C 37.5,33.1667 37.5,31.8333 37.5,30.5C 37.5,29.8333 37.8333,29.5 38.5,29.5 Z"/></g>
<g><path style="opacity:0.976" fill="#e29a71" d="M 44.5,28.5 C 44.8333,28.5 45.1667,28.5 45.5,28.5C 44.1448,31.8553 41.8114,34.1886 38.5,35.5C 38.5,35.1667 38.5,34.8333 38.5,34.5C 39.1667,33.1667 39.8333,31.8333 40.5,30.5C 42.1993,30.4729 43.5326,29.8062 44.5,28.5 Z"/></g>
<g><path style="opacity:1" fill="#d5531e" d="M 54.5,25.5 C 54.8333,25.5 55.1667,25.5 55.5,25.5C 55.5,27.5 55.5,29.5 55.5,31.5C 55.5,31.8333 55.5,32.1667 55.5,32.5C 54.596,33.209 54.2627,34.209 54.5,35.5C 53.8333,34.5 53.1667,33.5 52.5,32.5C 52.5,32.1667 52.5,31.8333 52.5,31.5C 54.1765,30.8166 54.8432,29.4832 54.5,27.5C 54.5,27.1667 54.5,26.8333 54.5,26.5C 54.5,26.1667 54.5,25.8333 54.5,25.5 Z"/></g>
<g><path style="opacity:1" fill="#e94907" d="M 61.5,29.5 C 63.1042,30.287 63.7709,31.6203 63.5,33.5C 63.1667,33.5 62.8333,33.5 62.5,33.5C 60.9519,33.1788 60.2852,32.1788 60.5,30.5C 60.5,29.8333 60.8333,29.5 61.5,29.5 Z"/></g>
<g><path style="opacity:1" fill="#ed4807" d="M 37.5,30.5 C 37.5,31.8333 37.5,33.1667 37.5,34.5C 35.9519,34.1788 35.2852,33.1788 35.5,31.5C 36.1667,31.1667 36.8333,30.8333 37.5,30.5 Z"/></g>
<g><path style="opacity:0.369" fill="#e9b4a4" d="M 50.5,29.5 C 50.8333,29.5 51.1667,29.5 51.5,29.5C 51.3284,30.4916 51.6618,31.1583 52.5,31.5C 52.5,31.8333 52.5,32.1667 52.5,32.5C 52.5,33.1667 52.5,33.8333 52.5,34.5C 50.7868,33.3646 50.1201,31.698 50.5,29.5 Z"/></g>
<g><path style="opacity:0.851" fill="#d16635" d="M 58.5,29.5 C 58.8333,29.5 59.1667,29.5 59.5,29.5C 59.5,29.8333 59.5,30.1667 59.5,30.5C 59.5,31.1667 59.5,31.8333 59.5,32.5C 58.0387,33.6857 56.7054,33.6857 55.5,32.5C 55.5,32.1667 55.5,31.8333 55.5,31.5C 57.3678,32.6736 58.3678,32.0069 58.5,29.5 Z"/></g>
<g><path style="opacity:1" fill="#da5317" d="M 10.5,32.5 C 10.7678,34.099 10.4345,35.4324 9.5,36.5C 9.5,36.1667 9.5,35.8333 9.5,35.5C 9.16667,34.8333 8.83333,34.1667 8.5,33.5C 9.16667,33.1667 9.83333,32.8333 10.5,32.5 Z"/></g>
<g><path style="opacity:1" fill="#d9521a" d="M 35.5,31.5 C 35.2852,33.1788 35.9519,34.1788 37.5,34.5C 37.8333,34.5 38.1667,34.5 38.5,34.5C 38.5,34.8333 38.5,35.1667 38.5,35.5C 36.9382,35.7329 35.6049,36.3995 34.5,37.5C 34.5983,34.7524 33.5983,34.0857 31.5,35.5C 31.5,35.1667 31.5,34.8333 31.5,34.5C 31.8333,33.8333 32.1667,33.1667 32.5,32.5C 33.609,32.4431 34.609,32.1098 35.5,31.5 Z"/></g>
<g><path style="opacity:0.647" fill="#d49578" d="M 52.5,32.5 C 53.1667,33.5 53.8333,34.5 54.5,35.5C 55.2341,36.7079 55.5674,38.0413 55.5,39.5C 53.7497,38.3406 52.7497,36.674 52.5,34.5C 52.5,33.8333 52.5,33.1667 52.5,32.5 Z"/></g>
<g><path style="opacity:1" fill="#e0500f" d="M 55.5,32.5 C 56.7054,33.6857 58.0387,33.6857 59.5,32.5C 59.6716,33.4916 59.3382,34.1583 58.5,34.5C 57.209,34.2627 56.209,34.596 55.5,35.5C 55.1667,35.5 54.8333,35.5 54.5,35.5C 54.2627,34.209 54.596,33.209 55.5,32.5 Z"/></g>
<g><path style="opacity:1" fill="#e74d10" d="M 59.5,30.5 C 59.8333,30.5 60.1667,30.5 60.5,30.5C 60.2852,32.1788 60.9519,33.1788 62.5,33.5C 61.7659,34.7079 61.4326,36.0413 61.5,37.5C 60.8166,39.1765 59.4832,39.8432 57.5,39.5C 57.5,39.1667 57.5,38.8333 57.5,38.5C 59.4931,37.5284 59.8264,36.1951 58.5,34.5C 59.3382,34.1583 59.6716,33.4916 59.5,32.5C 59.5,31.8333 59.5,31.1667 59.5,30.5 Z"/></g>
<g><path style="opacity:0.004" fill="#fe0000" d="M 72.5,33.5 C 73.8333,34.1667 73.8333,34.1667 72.5,33.5 Z"/></g>
<g><path style="opacity:0.522" fill="#e1a780" d="M 65.5,31.5 C 65.5,32.1667 65.5,32.8333 65.5,33.5C 64.6586,35.3792 64.3253,37.3792 64.5,39.5C 64.1667,39.5 63.8333,39.5 63.5,39.5C 63.5,38.1667 63.5,36.8333 63.5,35.5C 63.5,34.8333 63.5,34.1667 63.5,33.5C 64.1667,32.8333 64.8333,32.1667 65.5,31.5 Z"/></g>
<g><path style="opacity:0.004" fill="#fefffe" d="M -0.5,35.5 C 0.833333,36.1667 0.833333,36.1667 -0.5,35.5 Z"/></g>
<g><path style="opacity:0.906" fill="#d59b7e" d="M 7.5,35.5 C 8.16667,35.5 8.83333,35.5 9.5,35.5C 9.5,35.8333 9.5,36.1667 9.5,36.5C 9.5,37.1667 9.83333,37.5 10.5,37.5C 10.8333,38.5 11.5,39.1667 12.5,39.5C 12.5,39.8333 12.5,40.1667 12.5,40.5C 9.85603,39.8561 8.18936,38.1894 7.5,35.5 Z"/></g>
<g><path style="opacity:0.451" fill="#e5b499" d="M 29.5,34.5 C 28.8333,35.5 28.1667,36.5 27.5,37.5C 27.1667,37.5 26.8333,37.5 26.5,37.5C 26.1667,37.5 25.8333,37.5 25.5,37.5C 26.2623,35.7376 27.5956,34.7376 29.5,34.5 Z"/></g>
<g><path style="opacity:1" fill="#e74d0e" d="M 34.5,37.5 C 33.8333,37.5 33.5,37.8333 33.5,38.5C 31.5853,38.7845 29.9187,38.4511 28.5,37.5C 29.5,36.8333 30.5,36.1667 31.5,35.5C 33.5983,34.0857 34.5983,34.7524 34.5,37.5 Z"/></g>
<g><path style="opacity:0.004" fill="#fefffe" d="M 50.5,35.5 C 51.8333,36.1667 51.8333,36.1667 50.5,35.5 Z"/></g>
<g><path style="opacity:1" fill="#d15729" d="M 54.5,35.5 C 54.8333,35.5 55.1667,35.5 55.5,35.5C 56.1667,36.5 56.8333,37.5 57.5,38.5C 57.5,38.8333 57.5,39.1667 57.5,39.5C 56.8333,39.5 56.1667,39.5 55.5,39.5C 55.5674,38.0413 55.2341,36.7079 54.5,35.5 Z"/></g>
<g><path style="opacity:1" fill="#e34f0f" d="M 55.5,35.5 C 56.209,34.596 57.209,34.2627 58.5,34.5C 59.8264,36.1951 59.4931,37.5284 57.5,38.5C 56.8333,37.5 56.1667,36.5 55.5,35.5 Z"/></g>
<g><path style="opacity:1" fill="#d45018" d="M 62.5,33.5 C 62.8333,33.5 63.1667,33.5 63.5,33.5C 63.5,34.1667 63.5,34.8333 63.5,35.5C 62.8333,36.1667 62.1667,36.8333 61.5,37.5C 61.4326,36.0413 61.7659,34.7079 62.5,33.5 Z"/></g>
<g><path style="opacity:1" fill="#c75927" d="M 10.5,30.5 C 10.8333,30.5 11.1667,30.5 11.5,30.5C 11.5,32.5 11.5,34.5 11.5,36.5C 11.5,37.1667 11.1667,37.5 10.5,37.5C 9.83333,37.5 9.5,37.1667 9.5,36.5C 10.4345,35.4324 10.7678,34.099 10.5,32.5C 10.5,31.8333 10.5,31.1667 10.5,30.5 Z"/></g>
<g><path style="opacity:0.98" fill="#d3582c" d="M 29.5,34.5 C 30.1667,34.5 30.8333,34.5 31.5,34.5C 31.5,34.8333 31.5,35.1667 31.5,35.5C 30.5,36.1667 29.5,36.8333 28.5,37.5C 28.1667,37.5 27.8333,37.5 27.5,37.5C 28.1667,36.5 28.8333,35.5 29.5,34.5 Z"/></g>
<g><path style="opacity:0.18" fill="#dead97" d="M 38.5,35.5 C 37.4206,37.543 35.754,38.8763 33.5,39.5C 33.5,39.1667 33.5,38.8333 33.5,38.5C 33.5,37.8333 33.8333,37.5 34.5,37.5C 35.6049,36.3995 36.9382,35.7329 38.5,35.5 Z"/></g>
<g><path style="opacity:0.004" fill="#fefffe" d="M 66.5,36.5 C 67.8333,37.1667 67.8333,37.1667 66.5,36.5 Z"/></g>
<g><path style="opacity:0.965" fill="#c16245" d="M 11.5,36.5 C 11.8333,36.5 12.1667,36.5 12.5,36.5C 13.1157,37.7978 13.1157,38.7978 12.5,39.5C 11.5,39.1667 10.8333,38.5 10.5,37.5C 11.1667,37.5 11.5,37.1667 11.5,36.5 Z"/></g>
<g><path style="opacity:0.659" fill="#d88e70" d="M 25.5,37.5 C 25.8333,37.5 26.1667,37.5 26.5,37.5C 26.5,37.8333 26.5,38.1667 26.5,38.5C 25.8333,38.8333 25.1667,39.1667 24.5,39.5C 23.8333,39.5 23.1667,39.5 22.5,39.5C 23.2905,38.5987 24.2905,37.9321 25.5,37.5 Z"/></g>
<g><path style="opacity:0.984" fill="#d35822" d="M 26.5,37.5 C 26.8333,37.5 27.1667,37.5 27.5,37.5C 27.8333,37.5 28.1667,37.5 28.5,37.5C 29.9187,38.4511 31.5853,38.7845 33.5,38.5C 33.5,38.8333 33.5,39.1667 33.5,39.5C 32.1667,39.5 30.8333,39.5 29.5,39.5C 28.209,39.7373 27.209,39.404 26.5,38.5C 26.5,38.1667 26.5,37.8333 26.5,37.5 Z"/></g>
<g><path style="opacity:0.863" fill="#c4572a" d="M 26.5,38.5 C 27.209,39.404 28.209,39.7373 29.5,39.5C 28.791,40.404 27.791,40.7373 26.5,40.5C 25.5084,40.6716 24.8417,40.3382 24.5,39.5C 25.1667,39.1667 25.8333,38.8333 26.5,38.5 Z"/></g>
<g><path style="opacity:0.004" fill="#fefffe" d="M 45.5,39.5 C 46.8333,40.1667 46.8333,40.1667 45.5,39.5 Z"/></g>
<g><path style="opacity:1" fill="#cf5d26" d="M 63.5,35.5 C 63.5,36.8333 63.5,38.1667 63.5,39.5C 61.5,40.8333 59.5,40.8333 57.5,39.5C 59.4832,39.8432 60.8166,39.1765 61.5,37.5C 62.1667,36.8333 62.8333,36.1667 63.5,35.5 Z"/></g>
<g><path style="opacity:0.804" fill="#cda292" d="M 12.5,36.5 C 15.239,39.0242 18.5724,40.0242 22.5,39.5C 22.3893,40.1174 22.056,40.6174 21.5,41C 23.1341,41.4935 24.8008,41.6602 26.5,41.5C 24.6965,42.162 22.6965,42.4954 20.5,42.5C 17.4733,42.7135 14.8066,42.0468 12.5,40.5C 12.5,40.1667 12.5,39.8333 12.5,39.5C 13.1157,38.7978 13.1157,37.7978 12.5,36.5 Z"/></g>
<g><path style="opacity:0.596" fill="#c36339" d="M 22.5,39.5 C 23.1667,39.5 23.8333,39.5 24.5,39.5C 24.8417,40.3382 25.5084,40.6716 26.5,40.5C 26.5,40.8333 26.5,41.1667 26.5,41.5C 24.8008,41.6602 23.1341,41.4935 21.5,41C 22.056,40.6174 22.3893,40.1174 22.5,39.5 Z"/></g>
<g><path style="opacity:0.047" fill="#e9c3b5" d="M 29.5,39.5 C 30.8333,39.5 32.1667,39.5 33.5,39.5C 32.1516,40.1859 30.985,41.1859 30,42.5C 28.9887,41.6634 27.8221,41.33 26.5,41.5C 26.5,41.1667 26.5,40.8333 26.5,40.5C 27.791,40.7373 28.791,40.404 29.5,39.5 Z"/></g>
<g><path style="opacity:0.78" fill="#ca7c5b" d="M 55.5,39.5 C 56.1667,39.5 56.8333,39.5 57.5,39.5C 59.5,40.8333 61.5,40.8333 63.5,39.5C 63.8333,39.5 64.1667,39.5 64.5,39.5C 63.4479,41.256 61.7812,41.9227 59.5,41.5C 57.6203,41.7709 56.287,41.1042 55.5,39.5 Z"/></g>
<g><path style="opacity:0.263" fill="#ceaa98" d="M 64.5,39.5 C 66.9424,39.3537 67.6091,40.187 66.5,42C 63.9615,42.7958 61.6282,42.6291 59.5,41.5C 61.7812,41.9227 63.4479,41.256 64.5,39.5 Z"/></g>
<g><path style="opacity:0.004" fill="#fefffe" d="M 41.5,41.5 C 42.8333,42.1667 42.8333,42.1667 41.5,41.5 Z"/></g>
<g><path style="opacity:0.004" fill="#fefffe" d="M 71.5,41.5 C 72.8333,42.1667 72.8333,42.1667 71.5,41.5 Z"/></g>
<g><path style="opacity:0.004" fill="#fefffe" d="M 39.5,42.5 C 40.8333,43.1667 40.8333,43.1667 39.5,42.5 Z"/></g>
<g><path style="opacity:0.004" fill="#000000" d="M 78.5,42.5 C 79.8333,43.1667 79.8333,43.1667 78.5,42.5 Z"/></g>
<g><path style="opacity:0.004" fill="#fefffe" d="M 1.5,43.5 C 2.83333,44.1667 2.83333,44.1667 1.5,43.5 Z"/></g>
<g><path style="opacity:0.004" fill="#fefffe" d="M 86.5,44.5 C 87.8333,45.1667 87.8333,45.1667 86.5,44.5 Z"/></g>
<g><path style="opacity:0.004" fill="#fefffe" d="M 51.5,45.5 C 52.8333,46.1667 52.8333,46.1667 51.5,45.5 Z"/></g>
<g><path style="opacity:0.004" fill="#fefffe" d="M 46.5,46.5 C 47.8333,47.1667 47.8333,47.1667 46.5,46.5 Z"/></g>
<g><path style="opacity:0.004" fill="#fefffe" d="M 55.5,46.5 C 56.8333,47.1667 56.8333,47.1667 55.5,46.5 Z"/></g>
<g><path style="opacity:0.004" fill="#fefffe" d="M 0.5,48.5 C 1.83333,49.1667 1.83333,49.1667 0.5,48.5 Z"/></g>
<g><path style="opacity:0.004" fill="#fefffe" d="M 12.5,48.5 C 13.8333,49.1667 13.8333,49.1667 12.5,48.5 Z"/></g>
<g><path style="opacity:0.004" fill="#fefffe" d="M 21.5,48.5 C 22.8333,49.1667 22.8333,49.1667 21.5,48.5 Z"/></g>
<g><path style="opacity:0.004" fill="#fefffe" d="M 4.5,49.5 C 5.83333,50.1667 5.83333,50.1667 4.5,49.5 Z"/></g>
<g><path style="opacity:0.004" fill="#fefffe" d="M 67.5,49.5 C 68.8333,50.1667 68.8333,50.1667 67.5,49.5 Z"/></g>
<g><path style="opacity:0.004" fill="#fefffe" d="M 76.5,49.5 C 77.8333,50.1667 77.8333,50.1667 76.5,49.5 Z"/></g>
<g><path style="opacity:0.004" fill="#fefffe" d="M 2.5,50.5 C 3.83333,51.1667 3.83333,51.1667 2.5,50.5 Z"/></g>
<g><path style="opacity:0.004" fill="#fefffe" d="M 20.5,50.5 C 21.8333,51.1667 21.8333,51.1667 20.5,50.5 Z"/></g>
<g><path style="opacity:0.004" fill="#fefffe" d="M 29.5,50.5 C 30.8333,51.1667 30.8333,51.1667 29.5,50.5 Z"/></g>
<g><path style="opacity:0.004" fill="#fefffe" d="M 18.5,51.5 C 19.8333,52.1667 19.8333,52.1667 18.5,51.5 Z"/></g>
<g><path style="opacity:0.004" fill="#fefffe" d="M 73.5,52.5 C 74.8333,53.1667 74.8333,53.1667 73.5,52.5 Z"/></g>
<g><path style="opacity:0.004" fill="#fefffe" d="M 82.5,52.5 C 83.8333,53.1667 83.8333,53.1667 82.5,52.5 Z"/></g>
<g><path style="opacity:0.004" fill="#fefffe" d="M 62.5,53.5 C 63.8333,54.1667 63.8333,54.1667 62.5,53.5 Z"/></g>
<g><path style="opacity:0.004" fill="#fefffe" d="M 43.5,55.5 C 44.8333,56.1667 44.8333,56.1667 43.5,55.5 Z"/></g>
</svg>
